<svg width="1490" height="343" viewBox="0 0 1490 343" fill="none" xmlns="http://www.w3.org/2000/svg">
<g clip-path="url(#clip0_12026_8389)">
<path fill-rule="evenodd" clip-rule="evenodd" d="M225.193 343C293.612 319.888 343 253.807 343 175.896C343 78.7515 266.217 0 171.5 0C76.7832 0 0 78.7515 0 175.896C0 244.41 38.1925 303.774 93.9326 332.816C94.6332 332.254 95.3266 331.72 95.9666 331.261C99.1944 328.945 104.634 325.969 104.634 325.969C104.634 325.969 122.177 342.268 157.054 342.691C191.932 343.114 209.474 328.298 209.474 328.298C209.474 328.298 218.255 334.888 222.889 340.151C223.637 341.001 224.418 341.975 225.193 343ZM189.529 268.516L191.75 260.349C191.882 259.863 192.394 259.601 192.851 259.788C194.615 260.509 198.739 262.18 201.661 263.247C204.485 264.278 208.579 265.617 210.291 266.172C210.731 266.315 210.971 266.799 210.825 267.248L208.423 274.665C208.28 275.105 207.82 275.345 207.389 275.205L190.074 269.55C189.65 269.412 189.41 268.955 189.529 268.516ZM191.931 277.71L176.453 330.204L187.185 325.547L200.599 280.25L191.931 277.71ZM176.864 73.569V143.723C176.864 144.425 177.419 144.993 178.103 144.993H208.034C212.799 144.993 217.383 143.115 220.835 139.746L228.307 132.457C230.688 130.134 231.178 126.429 229.488 123.54L207.802 86.4692C204.077 80.1027 198.32 75.2532 191.508 72.7432L183.098 69.6449C181.639 69.1071 180.019 69.2893 178.708 70.1387C177.56 70.8821 176.864 72.1769 176.864 73.569ZM175.009 40.2176V55.7903C175.009 58.5036 176.69 60.9171 179.193 61.7971L192.394 66.4394C199.833 69.0553 206.152 74.2463 210.265 81.1208L234.933 122.351C236.405 124.812 239.107 126.208 241.912 125.957L260.32 124.308C262.028 124.156 263.314 122.687 263.138 120.939C262.272 112.347 257.688 87.4241 233.414 65.6178C205.141 40.2176 175.009 40.2176 175.009 40.2176ZM260.62 148.101L264.577 135.046V141.396L267.879 144.359L289.321 171.411C290.23 172.558 289.743 174.283 288.377 174.753L267.355 181.992C265.09 182.772 262.706 181.187 262.476 178.747L260.086 153.427C259.917 151.633 260.099 149.822 260.62 148.101ZM209.915 156.174L227.576 209.18C227.752 209.708 227.994 210.21 228.298 210.672L240.726 229.614C241.508 230.807 243.292 230.52 243.681 229.139L255.406 187.514C255.875 185.85 256.055 184.114 255.939 182.386L254.267 157.44C254.029 153.888 251.15 151.132 247.679 151.132H213.43C210.883 151.132 209.091 153.701 209.915 156.174ZM248.381 238.111L253.506 217.085C253.587 216.753 253.855 216.503 254.185 216.453L265.288 214.753C266.632 214.547 267.977 215.11 268.798 216.221L270.546 218.588C271.72 220.177 271.501 222.424 270.045 223.744L265.401 227.954C264.312 228.94 263.046 229.699 261.674 230.188L253.64 233.046L264.484 236.366C266.329 236.931 267.737 238.466 268.175 240.389L269.704 247.114C270.128 248.975 269.955 250.926 269.212 252.679L268.94 253.321C268.547 254.248 267.655 254.848 266.669 254.848H260.819C259.025 254.848 257.333 253.994 256.239 252.535L249.48 243.523C248.327 241.986 247.922 239.993 248.381 238.111ZM134.56 203.414V208.283C136.899 209.059 143.062 210.865 149.006 211.881C154.95 212.897 158.637 213.151 159.738 213.151V205.319C157.743 205.884 152.514 206.378 146.736 206.166C141.41 205.971 136.831 204.262 134.884 203.535L134.884 203.535C134.766 203.491 134.658 203.45 134.56 203.414ZM145.495 241.937L146.94 225.638L167.165 232.2L165.927 244.265L145.495 241.937ZM150.243 253.79L149.418 265.009H157.054V253.79H150.243ZM153.133 287.446L150.037 270.724H157.467C157.536 271.994 157.797 275.254 158.292 278.133C158.788 281.011 160.15 285.541 160.769 287.446H153.133ZM154.784 292.949C155.403 295.066 156.27 299.681 156.435 302.051C156.469 302.543 156.51 303.089 156.552 303.658C156.715 305.832 156.902 308.341 156.847 309.46H164.277C164.277 307.131 163.575 302.221 163.245 300.358C162.915 298.495 161.869 294.643 161.388 292.949H154.784ZM160.355 323.853C160.025 320.466 158.842 316.374 158.291 314.751H165.102C165.583 316.303 166.67 319.958 167.166 322.159C167.661 324.361 168.198 329.003 168.404 331.049H160.768C160.768 330.061 160.685 327.239 160.355 323.853ZM109.173 231.354L114.745 274.746L125.27 273.264L119.698 229.026C119.698 229.026 117.015 230.931 114.745 231.142C112.578 231.344 109.173 231.354 109.173 231.354ZM124.447 321.736L119.081 284.271L124.447 283.424L129.813 323.853L124.447 321.736ZM118.873 207.223C118.873 212.016 115.084 215.902 110.411 215.902C105.738 215.902 101.95 212.016 101.95 207.223C101.95 202.431 105.738 198.545 110.411 198.545C115.084 198.545 118.873 202.431 118.873 207.223ZM125.477 207.223C125.477 215.757 118.732 222.675 110.411 222.675C102.091 222.675 95.3456 215.757 95.3456 207.223C95.3456 198.69 102.091 191.772 110.411 191.772C118.732 191.772 125.477 198.69 125.477 207.223ZM82.5515 184.151L76.7729 175.685L79.8686 171.24L87.2982 182.035L82.5515 184.151ZM150.862 143.934C154.046 143.934 156.912 145.329 158.911 147.556V162.749C156.912 164.975 154.046 166.371 150.862 166.371C144.821 166.371 139.924 161.348 139.924 155.152C139.924 148.956 144.821 143.934 150.862 143.934ZM158.911 130.202C156.269 129.226 153.42 128.694 150.45 128.694C136.658 128.694 125.478 140.161 125.478 154.306C125.478 168.451 136.658 179.918 150.45 179.918C153.42 179.918 156.269 179.386 158.911 178.41V173.923C156.383 175.056 153.591 175.685 150.656 175.685C139.258 175.685 130.018 166.208 130.018 154.518C130.018 142.828 139.258 133.351 150.656 133.351C153.591 133.351 156.383 133.979 158.911 135.112V130.202ZM150.449 111.762C153.35 111.762 156.181 112.074 158.91 112.666V119.562C156.266 118.891 153.501 118.535 150.655 118.535C131.735 118.535 116.397 134.267 116.397 153.672C116.397 173.078 131.735 188.809 150.655 188.809C153.501 188.809 156.266 188.453 158.91 187.782V194.255C156.181 194.847 153.35 195.159 150.449 195.159C127.995 195.159 109.792 176.49 109.792 153.46C109.792 130.431 127.995 111.762 150.449 111.762ZM159.53 103.717V74.9305C159.53 74.9305 151.163 76.0507 146.322 77.2589C133.501 80.4588 125.129 85.3022 117.017 91.229C104.661 100.256 93.794 113.23 87.7105 124.461C82.551 133.986 76.5661 155.153 78.4236 158.751C78.8131 159.506 79.1713 160.204 79.5071 160.858L79.5129 160.87L79.513 160.87C82.0128 165.742 83.2689 168.19 86.885 173.356C90.8468 179.016 97.8234 186.48 97.8234 186.48C97.8234 186.48 100.296 184.451 102.157 183.728C104.289 182.899 107.936 182.881 107.936 182.881L104.633 176.531C104.633 176.531 102.485 172.16 101.538 168.065C95.7788 143.172 107.862 116.84 130.843 106.892C141.512 102.274 159.53 103.717 159.53 103.717ZM88.7424 155.999C88.7424 158.454 86.802 160.444 84.4084 160.444C82.0149 160.444 80.0745 158.454 80.0745 155.999C80.0745 153.545 82.0149 151.554 84.4084 151.554C86.802 151.554 88.7424 153.545 88.7424 155.999ZM94.3146 132.928C96.7081 132.928 98.6485 130.938 98.6485 128.483C98.6485 126.028 96.7081 124.038 94.3146 124.038C91.921 124.038 89.9806 126.028 89.9806 128.483C89.9806 130.938 91.921 132.928 94.3146 132.928ZM118.874 102.659C118.874 105.114 116.933 107.104 114.54 107.104C112.146 107.104 110.206 105.114 110.206 102.659C110.206 100.204 112.146 98.214 114.54 98.214C116.933 98.214 118.874 100.204 118.874 102.659ZM145.909 93.134C148.303 93.134 150.243 91.1439 150.243 88.6889C150.243 86.234 148.303 84.2439 145.909 84.2439C143.516 84.2439 141.575 86.234 141.575 88.6889C141.575 91.1439 143.516 93.134 145.909 93.134ZM159.53 69.2165V52.918C159.53 52.918 131.528 52.3736 114.952 63.0781C98.4558 73.7313 89.3615 84.0332 80.2808 101.602C73.7519 114.233 71.4021 131.659 72.232 140.549C72.5515 143.971 73.4706 147.534 73.4706 147.534C73.4706 147.534 79.264 128.576 85.0276 118.323C92.4505 105.119 98.8959 97.635 110.618 88.2666C121.144 79.855 131.927 74.7475 147.973 70.9098C152.67 69.7865 159.53 69.2165 159.53 69.2165ZM81.3128 116.418C83.1364 116.418 84.6148 114.902 84.6148 113.032C84.6148 111.161 83.1364 109.645 81.3128 109.645C79.4891 109.645 78.0107 111.161 78.0107 113.032C78.0107 114.902 79.4891 116.418 81.3128 116.418ZM99.0613 93.3467C99.0613 95.8016 97.1209 97.7917 94.7273 97.7917C92.3338 97.7917 90.3934 95.8016 90.3934 93.3467C90.3934 90.8917 92.3338 88.9016 94.7273 88.9016C97.1209 88.9016 99.0613 90.8917 99.0613 93.3467ZM117.429 77.8949C119.822 77.8949 121.763 75.9048 121.763 73.4499C121.763 70.9949 119.822 69.0048 117.429 69.0048C115.035 69.0048 113.095 70.9949 113.095 73.4499C113.095 75.9048 115.035 77.8949 117.429 77.8949ZM149.418 63.2898C149.418 65.7447 147.477 67.7348 145.084 67.7348C142.69 67.7348 140.75 65.7447 140.75 63.2898C140.75 60.8349 142.69 58.8448 145.084 58.8448C147.477 58.8448 149.418 60.8349 149.418 63.2898ZM177.483 216.96L176.864 151.766L196.883 151.554H198.947C200.816 151.554 202.498 152.722 203.192 154.502L203.693 155.787L222.04 211.216C222.465 212.499 223.059 213.716 223.806 214.834L244.763 246.17C246.813 249.07 244.232 253.02 240.837 252.177L237.952 251.462L201.01 242.36L198.934 241.843C187.409 238.974 178.848 229.043 177.483 216.96ZM261.174 188.048L254.573 212.684C254.379 213.408 255.132 214.013 255.771 213.647L273.021 203.777C273.384 203.569 273.54 203.116 273.384 202.721L269.416 192.644C269.355 192.489 269.251 192.356 269.117 192.262L262.436 187.573C261.968 187.245 261.324 187.487 261.174 188.048Z" fill="#29B85D"></path>
</g>
<path d="M532.538 138.936C532.538 143.181 531.987 147.012 530.884 150.43C529.837 153.793 528.431 156.77 526.667 159.362C524.903 161.953 522.835 164.158 520.465 165.977C518.094 167.796 515.641 169.285 513.105 170.443C510.569 171.6 507.977 172.455 505.331 173.006C502.74 173.558 500.287 173.833 497.971 173.833H415.028V152.332H497.971C502.106 152.332 505.304 151.12 507.564 148.694C509.879 146.268 511.037 143.015 511.037 138.936C511.037 136.951 510.734 135.132 510.128 133.478C509.521 131.824 508.639 130.39 507.481 129.178C506.379 127.965 505 127.028 503.347 126.366C501.748 125.704 499.956 125.374 497.971 125.374H448.519C445.046 125.374 441.297 124.767 437.273 123.554C433.248 122.286 429.499 120.274 426.026 117.518C422.608 114.761 419.741 111.15 417.426 106.684C415.165 102.219 414.035 96.7609 414.035 90.3106C414.035 83.8604 415.165 78.43 417.426 74.0196C419.741 69.554 422.608 65.943 426.026 63.1865C429.499 60.3748 433.248 58.3625 437.273 57.1497C441.297 55.8817 445.046 55.2477 448.519 55.2477H521.705V76.7485H448.519C444.44 76.7485 441.242 77.989 438.927 80.4698C436.666 82.9507 435.536 86.231 435.536 90.3106C435.536 94.4454 436.666 97.7257 438.927 100.151C441.242 102.522 444.44 103.707 448.519 103.707H497.971H498.137C500.452 103.762 502.905 104.093 505.497 104.7C508.088 105.251 510.651 106.133 513.187 107.346C515.778 108.559 518.232 110.102 520.547 111.977C522.863 113.796 524.903 116.001 526.667 118.593C528.486 121.184 529.919 124.161 530.967 127.524C532.014 130.887 532.538 134.691 532.538 138.936Z" fill="white"></path>
<path d="M674.857 125.87C674.857 133.092 673.617 139.735 671.136 145.799C668.655 151.864 665.21 157.101 660.799 161.512C656.389 165.922 651.151 169.368 645.087 171.849C639.078 174.274 632.517 175.487 625.405 175.487H596.296C589.185 175.487 582.597 174.274 576.532 171.849C570.468 169.368 565.23 165.922 560.82 161.512C556.41 157.101 552.936 151.864 550.4 145.799C547.919 139.735 546.679 133.092 546.679 125.87V103.211C546.679 96.0442 547.919 89.4285 550.4 83.3642C552.936 77.2447 556.41 72.0073 560.82 67.652C565.23 63.2416 570.468 59.7959 576.532 57.3151C582.597 54.8342 589.185 53.5938 596.296 53.5938H625.405C632.517 53.5938 639.078 54.8342 645.087 57.3151C651.151 59.7959 656.389 63.2416 660.799 67.652C665.21 72.0073 668.655 77.2447 671.136 83.3642C673.617 89.4285 674.857 96.0442 674.857 103.211V125.87ZM653.357 103.211C653.357 98.9661 652.667 95.1346 651.289 91.7165C649.966 88.2432 648.064 85.2938 645.583 82.868C643.157 80.3872 640.208 78.4852 636.735 77.162C633.317 75.7838 629.54 75.0946 625.405 75.0946H596.296C592.107 75.0946 588.275 75.7838 584.802 77.162C581.384 78.4852 578.434 80.3872 575.953 82.868C573.472 85.2938 571.543 88.2432 570.165 91.7165C568.842 95.1346 568.18 98.9661 568.18 103.211V125.87C568.18 130.115 568.842 133.974 570.165 137.447C571.543 140.865 573.472 143.815 575.953 146.296C578.434 148.721 581.384 150.623 584.802 152.002C588.275 153.325 592.107 153.986 596.296 153.986H625.24C629.43 153.986 633.234 153.325 636.652 152.002C640.125 150.623 643.102 148.721 645.583 146.296C648.064 143.815 649.966 140.865 651.289 137.447C652.667 133.974 653.357 130.115 653.357 125.87V103.211Z" fill="white"></path>
<path d="M794.187 125.374H726.211V103.707H794.187V125.374ZM803.78 76.7485H717.611V173.833H696.11V66.0808C696.11 64.5923 696.386 63.1865 696.937 61.8633C697.488 60.5402 698.233 59.3824 699.17 58.3901C700.162 57.3978 701.32 56.6259 702.643 56.0746C703.966 55.5233 705.4 55.2477 706.943 55.2477H803.78V76.7485Z" fill="white"></path>
<path d="M928.32 76.7485H880.935V173.833H859.434V76.7485H811.967V55.2477H928.32V76.7485Z" fill="white"></path>
<path d="M1062.53 124.216C1062.53 131.438 1061.27 138.081 1058.73 144.146C1056.25 150.21 1052.8 155.447 1048.39 159.858C1043.98 164.213 1038.75 167.631 1032.68 170.112C1026.62 172.593 1020.03 173.833 1012.92 173.833H954.865C953.321 173.833 951.888 173.558 950.565 173.006C949.242 172.455 948.084 171.711 947.092 170.774C946.154 169.781 945.41 168.623 944.859 167.3C944.308 165.977 944.032 164.544 944.032 163V66.0808C944.032 64.5923 944.308 63.1865 944.859 61.8633C945.41 60.5402 946.154 59.3824 947.092 58.3901C948.084 57.3978 949.242 56.6259 950.565 56.0746C951.888 55.5233 953.321 55.2477 954.865 55.2477H1012.92C1020.03 55.2477 1026.62 56.4881 1032.68 58.969C1038.75 61.4498 1043.98 64.8955 1048.39 69.3059C1052.8 73.6612 1056.25 78.8986 1058.73 85.0181C1061.27 91.0825 1062.53 97.6981 1062.53 104.865V124.216ZM1041.03 104.865C1041.03 100.675 1040.34 96.8436 1038.97 93.3704C1037.64 89.8972 1035.74 86.9477 1033.26 84.5219C1030.78 82.0411 1027.8 80.1391 1024.33 78.8159C1020.91 77.4377 1017.11 76.7485 1012.92 76.7485H965.533V152.332H1012.92C1017.11 152.332 1020.91 151.671 1024.33 150.348C1027.8 148.969 1030.78 147.067 1033.26 144.642C1035.74 142.161 1037.64 139.211 1038.97 135.793C1040.34 132.32 1041.03 128.461 1041.03 124.216V104.865Z" fill="white"></path>
<path d="M1199.98 173.833H1178.47V144.724H1102.89V173.833H1081.39V114.54C1081.39 105.885 1082.88 97.9186 1085.86 90.6414C1088.83 83.3642 1092.97 77.1069 1098.26 71.8695C1103.55 66.6321 1109.81 62.5524 1117.03 59.6305C1124.25 56.7086 1132.14 55.2477 1140.68 55.2477H1189.14C1190.63 55.2477 1192.04 55.5233 1193.36 56.0746C1194.68 56.6259 1195.84 57.3978 1196.83 58.3901C1197.83 59.3824 1198.6 60.5402 1199.15 61.8633C1199.7 63.1865 1199.98 64.5923 1199.98 66.0808V173.833ZM1102.89 123.224H1178.47V76.7485H1140.68C1140.02 76.7485 1138.61 76.8588 1136.46 77.0793C1134.37 77.2447 1131.92 77.7133 1129.1 78.4852C1126.35 79.257 1123.43 80.4423 1120.34 82.0411C1117.25 83.6399 1114.41 85.8451 1111.82 88.6567C1109.23 91.4684 1107.08 94.9967 1105.37 99.2418C1103.72 103.432 1102.89 108.531 1102.89 114.54V123.224Z" fill="white"></path>
<path d="M1332.21 76.7485H1284.82V173.833H1263.32V76.7485H1215.85V55.2477H1332.21V76.7485Z" fill="white"></path>
<path d="M1460.3 173.833H1438.8V144.724H1363.22V173.833H1341.72V114.54C1341.72 105.885 1343.2 97.9186 1346.18 90.6414C1349.16 83.3642 1353.29 77.1069 1358.59 71.8695C1363.88 66.6321 1370.14 62.5524 1377.36 59.6305C1384.58 56.7086 1392.46 55.2477 1401.01 55.2477H1449.47C1450.96 55.2477 1452.36 55.5233 1453.69 56.0746C1455.01 56.6259 1456.17 57.3978 1457.16 58.3901C1458.15 59.3824 1458.92 60.5402 1459.47 61.8633C1460.03 63.1865 1460.3 64.5923 1460.3 66.0808V173.833ZM1363.22 123.224H1438.8V76.7485H1401.01C1400.35 76.7485 1398.94 76.8588 1396.79 77.0793C1394.7 77.2447 1392.24 77.7133 1389.43 78.4852C1386.67 79.257 1383.75 80.4423 1380.67 82.0411C1377.58 83.6399 1374.74 85.8451 1372.15 88.6567C1369.56 91.4684 1367.41 94.9967 1365.7 99.2418C1364.04 103.432 1363.22 108.531 1363.22 114.54V123.224Z" fill="white"></path>
<path d="M425.448 242.344L442.466 278.838H438.547L432.816 266.83H417.087L411.381 278.838H407.312L424.555 242.344H425.448ZM425.001 250.084L418.725 263.307H431.203L425.001 250.084Z" fill="white"></path>
<path d="M458.964 251.846H462.512V255.79C463.57 254.236 464.687 253.078 465.861 252.317C467.035 251.54 468.259 251.151 469.533 251.151C470.492 251.151 471.517 251.457 472.609 252.069L470.798 254.996C470.07 254.682 469.458 254.525 468.962 254.525C467.804 254.525 466.688 255.005 465.613 255.964C464.538 256.907 463.719 258.379 463.157 260.38C462.727 261.918 462.512 265.027 462.512 269.708V278.838H458.964V251.846Z" fill="white"></path>
<path d="M491.29 241.823H494.788V251.846H500.296V254.823H494.788V278.838H491.29V254.823H486.552V251.846H491.29V241.823Z" fill="white"></path>
<path d="M519.398 240.731C520.192 240.731 520.87 241.013 521.433 241.575C521.995 242.137 522.276 242.815 522.276 243.609C522.276 244.387 521.995 245.056 521.433 245.619C520.87 246.181 520.192 246.462 519.398 246.462C518.621 246.462 517.951 246.181 517.389 245.619C516.826 245.056 516.545 244.387 516.545 243.609C516.545 242.815 516.826 242.137 517.389 241.575C517.951 241.013 518.621 240.731 519.398 240.731ZM517.662 251.846H521.16V278.838H517.662V251.846Z" fill="white"></path>
<path d="M552.171 241.426V244.825C550.897 244.279 549.805 244.006 548.896 244.006C548.218 244.006 547.655 244.147 547.209 244.428C546.762 244.693 546.481 245.007 546.365 245.371C546.25 245.718 546.192 246.661 546.192 248.199V251.846H551.823V254.823H546.167V278.838H542.694V254.823H539.146V251.846H542.694V247.628C542.694 245.693 542.867 244.312 543.215 243.485C543.578 242.658 544.182 241.997 545.026 241.501C545.886 240.988 546.919 240.731 548.127 240.731C549.251 240.731 550.599 240.963 552.171 241.426Z" fill="white"></path>
<path d="M570.951 240.731C571.745 240.731 572.423 241.013 572.985 241.575C573.547 242.137 573.829 242.815 573.829 243.609C573.829 244.387 573.547 245.056 572.985 245.619C572.423 246.181 571.745 246.462 570.951 246.462C570.173 246.462 569.504 246.181 568.941 245.619C568.379 245.056 568.098 244.387 568.098 243.609C568.098 242.815 568.379 242.137 568.941 241.575C569.504 241.013 570.173 240.731 570.951 240.731ZM569.214 251.846H572.712V278.838H569.214V251.846Z" fill="white"></path>
<path d="M618.807 257.453L616.053 259.164C613.671 256.005 610.421 254.426 606.303 254.426C603.012 254.426 600.275 255.484 598.091 257.601C595.925 259.718 594.842 262.29 594.842 265.317C594.842 267.285 595.338 269.137 596.33 270.874C597.339 272.611 598.712 273.959 600.448 274.918C602.201 275.877 604.161 276.357 606.328 276.357C610.297 276.357 613.539 274.777 616.053 271.618L618.807 273.429C617.517 275.364 615.78 276.869 613.597 277.945C611.43 279.003 608.958 279.532 606.179 279.532C601.912 279.532 598.373 278.176 595.561 275.464C592.749 272.751 591.343 269.452 591.343 265.565C591.343 262.952 591.997 260.529 593.303 258.296C594.627 256.047 596.438 254.294 598.736 253.037C601.035 251.78 603.607 251.151 606.452 251.151C608.238 251.151 609.958 251.424 611.612 251.97C613.283 252.516 614.697 253.227 615.855 254.103C617.012 254.98 617.996 256.096 618.807 257.453Z" fill="white"></path>
<path d="M639.423 240.731C640.217 240.731 640.895 241.013 641.457 241.575C642.019 242.137 642.301 242.815 642.301 243.609C642.301 244.387 642.019 245.056 641.457 245.619C640.895 246.181 640.217 246.462 639.423 246.462C638.645 246.462 637.976 246.181 637.413 245.619C636.851 245.056 636.57 244.387 636.57 243.609C636.57 242.815 636.851 242.137 637.413 241.575C637.976 241.013 638.645 240.731 639.423 240.731ZM637.686 251.846H641.184V278.838H637.686V251.846Z" fill="white"></path>
<path d="M687.973 251.846V278.838H684.55V274.198C683.094 275.968 681.457 277.299 679.638 278.193C677.835 279.086 675.858 279.532 673.708 279.532C669.888 279.532 666.621 278.151 663.909 275.389C661.213 272.611 659.865 269.237 659.865 265.267C659.865 261.381 661.23 258.056 663.959 255.294C666.688 252.532 669.971 251.151 673.808 251.151C676.024 251.151 678.025 251.622 679.811 252.565C681.614 253.508 683.194 254.922 684.55 256.807V251.846H687.973ZM674.081 254.5C672.145 254.5 670.359 254.98 668.722 255.939C667.084 256.882 665.778 258.213 664.802 259.933C663.843 261.653 663.363 263.473 663.363 265.391C663.363 267.293 663.851 269.113 664.827 270.849C665.803 272.586 667.109 273.942 668.747 274.918C670.401 275.877 672.17 276.357 674.056 276.357C675.958 276.357 677.76 275.877 679.464 274.918C681.168 273.959 682.474 272.66 683.384 271.023C684.31 269.386 684.773 267.541 684.773 265.491C684.773 262.365 683.739 259.751 681.672 257.651C679.621 255.551 677.091 254.5 674.081 254.5Z" fill="white"></path>
<path d="M707.994 241.426H711.467V278.838H707.994V241.426Z" fill="white"></path>
<path d="M758.232 242.344H761.879V278.838H758.232V242.344Z" fill="white"></path>
<path d="M782.395 251.846H785.869V256.683C787.258 254.831 788.796 253.45 790.483 252.54C792.17 251.614 794.006 251.151 795.991 251.151C798.008 251.151 799.795 251.664 801.349 252.689C802.92 253.715 804.078 255.096 804.822 256.832C805.567 258.569 805.939 261.273 805.939 264.945V278.838H802.49V265.962C802.49 262.853 802.358 260.777 802.093 259.735C801.68 257.949 800.903 256.609 799.761 255.716C798.62 254.806 797.132 254.351 795.296 254.351C793.195 254.351 791.31 255.046 789.639 256.435C787.986 257.825 786.894 259.545 786.365 261.596C786.034 262.935 785.869 265.383 785.869 268.939V278.838H782.395V251.846Z" fill="white"></path>
<path d="M829.135 241.823H832.633V251.846H838.141V254.823H832.633V278.838H829.135V254.823H824.397V251.846H829.135V241.823Z" fill="white"></path>
<path d="M878.752 269.882L881.68 271.42C880.721 273.305 879.612 274.827 878.355 275.985C877.098 277.142 875.684 278.027 874.113 278.639C872.542 279.235 870.764 279.532 868.779 279.532C864.38 279.532 860.94 278.093 858.459 275.216C855.978 272.321 854.738 269.055 854.738 265.416C854.738 261.993 855.788 258.941 857.888 256.262C860.551 252.855 864.115 251.151 868.581 251.151C873.179 251.151 876.85 252.896 879.596 256.386C881.547 258.85 882.54 261.926 882.573 265.615H858.31C858.376 268.757 859.377 271.337 861.312 273.355C863.247 275.356 865.637 276.357 868.482 276.357C869.854 276.357 871.186 276.117 872.476 275.637C873.782 275.158 874.891 274.521 875.8 273.727C876.71 272.933 877.694 271.651 878.752 269.882ZM878.752 262.613C878.289 260.76 877.611 259.28 876.718 258.172C875.841 257.064 874.675 256.171 873.22 255.493C871.765 254.815 870.235 254.475 868.63 254.475C865.984 254.475 863.71 255.327 861.808 257.031C860.419 258.271 859.368 260.132 858.657 262.613H878.752Z" fill="white"></path>
<path d="M901.254 241.426H904.727V278.838H901.254V241.426Z" fill="white"></path>
<path d="M924.128 241.426H927.601V278.838H924.128V241.426Z" fill="white"></path>
<path d="M948.738 240.731C949.532 240.731 950.21 241.013 950.772 241.575C951.334 242.137 951.616 242.815 951.616 243.609C951.616 244.387 951.334 245.056 950.772 245.619C950.21 246.181 949.532 246.462 948.738 246.462C947.96 246.462 947.291 246.181 946.728 245.619C946.166 245.056 945.885 244.387 945.885 243.609C945.885 242.815 946.166 242.137 946.728 241.575C947.291 241.013 947.96 240.731 948.738 240.731ZM947.001 251.846H950.499V278.838H947.001V251.846Z" fill="white"></path>
<path d="M993.641 251.846H997.14V273.355C997.14 277.142 996.809 279.913 996.147 281.666C995.238 284.147 993.658 286.057 991.409 287.397C989.159 288.736 986.455 289.406 983.296 289.406C980.981 289.406 978.897 289.075 977.044 288.414C975.209 287.769 973.712 286.892 972.554 285.784C971.396 284.692 970.33 283.088 969.354 280.971H973.125C974.15 282.757 975.473 284.081 977.094 284.941C978.715 285.801 980.724 286.231 983.123 286.231C985.488 286.231 987.481 285.784 989.102 284.891C990.739 284.014 991.905 282.906 992.6 281.567C993.294 280.227 993.641 278.069 993.641 275.092V273.702C992.335 275.356 990.739 276.63 988.853 277.523C986.968 278.399 984.967 278.838 982.85 278.838C980.369 278.838 978.037 278.226 975.854 277.002C973.67 275.761 971.984 274.099 970.793 272.015C969.602 269.931 969.006 267.641 969.006 265.143C969.006 262.646 969.627 260.322 970.867 258.172C972.108 256.005 973.819 254.294 976.003 253.037C978.202 251.78 980.518 251.151 982.949 251.151C984.967 251.151 986.844 251.573 988.581 252.416C990.334 253.243 992.021 254.616 993.641 256.535V251.846ZM983.396 254.5C981.427 254.5 979.6 254.98 977.913 255.939C976.226 256.882 974.903 258.197 973.943 259.884C972.984 261.554 972.505 263.365 972.505 265.317C972.505 268.277 973.497 270.725 975.482 272.66C977.466 274.595 980.038 275.563 983.197 275.563C986.389 275.563 988.953 274.604 990.888 272.685C992.839 270.767 993.815 268.244 993.815 265.118C993.815 263.084 993.369 261.273 992.476 259.685C991.582 258.081 990.317 256.816 988.68 255.89C987.042 254.963 985.281 254.5 983.396 254.5Z" fill="white"></path>
<path d="M1040.01 269.882L1042.94 271.42C1041.98 273.305 1040.87 274.827 1039.61 275.985C1038.36 277.142 1036.94 278.027 1035.37 278.639C1033.8 279.235 1032.02 279.532 1030.04 279.532C1025.64 279.532 1022.2 278.093 1019.72 275.216C1017.23 272.321 1015.99 269.055 1015.99 265.416C1015.99 261.993 1017.04 258.941 1019.14 256.262C1021.81 252.855 1025.37 251.151 1029.84 251.151C1034.44 251.151 1038.11 252.896 1040.85 256.386C1042.8 258.85 1043.8 261.926 1043.83 265.615H1019.57C1019.63 268.757 1020.63 271.337 1022.57 273.355C1024.5 275.356 1026.89 276.357 1029.74 276.357C1031.11 276.357 1032.44 276.117 1033.73 275.637C1035.04 275.158 1036.15 274.521 1037.06 273.727C1037.97 272.933 1038.95 271.651 1040.01 269.882ZM1040.01 262.613C1039.55 260.76 1038.87 259.28 1037.97 258.172C1037.1 257.064 1035.93 256.171 1034.48 255.493C1033.02 254.815 1031.49 254.475 1029.89 254.475C1027.24 254.475 1024.97 255.327 1023.06 257.031C1021.68 258.271 1020.63 260.132 1019.91 262.613H1040.01Z" fill="white"></path>
<path d="M1063.03 251.846H1066.5V256.683C1067.89 254.831 1069.43 253.45 1071.12 252.54C1072.81 251.614 1074.64 251.151 1076.63 251.151C1078.64 251.151 1080.43 251.664 1081.99 252.689C1083.56 253.715 1084.71 255.096 1085.46 256.832C1086.2 258.569 1086.57 261.273 1086.57 264.945V278.838H1083.13V265.962C1083.13 262.853 1082.99 260.777 1082.73 259.735C1082.32 257.949 1081.54 256.609 1080.4 255.716C1079.26 254.806 1077.77 254.351 1075.93 254.351C1073.83 254.351 1071.95 255.046 1070.28 256.435C1068.62 257.825 1067.53 259.545 1067 261.596C1066.67 262.935 1066.5 265.383 1066.5 268.939V278.838H1063.03V251.846Z" fill="white"></path>
<path d="M1132.94 257.453L1130.19 259.164C1127.81 256.005 1124.56 254.426 1120.44 254.426C1117.15 254.426 1114.41 255.484 1112.23 257.601C1110.06 259.718 1108.98 262.29 1108.98 265.317C1108.98 267.285 1109.47 269.137 1110.47 270.874C1111.47 272.611 1112.85 273.959 1114.58 274.918C1116.34 275.877 1118.3 276.357 1120.46 276.357C1124.43 276.357 1127.67 274.777 1130.19 271.618L1132.94 273.429C1131.65 275.364 1129.92 276.869 1127.73 277.945C1125.57 279.003 1123.09 279.532 1120.31 279.532C1116.05 279.532 1112.51 278.176 1109.7 275.464C1106.89 272.751 1105.48 269.452 1105.48 265.565C1105.48 262.952 1106.13 260.529 1107.44 258.296C1108.76 256.047 1110.57 254.294 1112.87 253.037C1115.17 251.78 1117.74 251.151 1120.59 251.151C1122.37 251.151 1124.09 251.424 1125.75 251.97C1127.42 252.516 1128.83 253.227 1129.99 254.103C1131.15 254.98 1132.13 256.096 1132.94 257.453Z" fill="white"></path>
<path d="M1175.07 269.882L1177.99 271.42C1177.04 273.305 1175.93 274.827 1174.67 275.985C1173.41 277.142 1172 278.027 1170.43 278.639C1168.86 279.235 1167.08 279.532 1165.09 279.532C1160.7 279.532 1157.25 278.093 1154.77 275.216C1152.29 272.321 1151.05 269.055 1151.05 265.416C1151.05 261.993 1152.1 258.941 1154.2 256.262C1156.87 252.855 1160.43 251.151 1164.9 251.151C1169.49 251.151 1173.17 252.896 1175.91 256.386C1177.86 258.85 1178.86 261.926 1178.89 265.615H1154.63C1154.69 268.757 1155.69 271.337 1157.63 273.355C1159.56 275.356 1161.95 276.357 1164.8 276.357C1166.17 276.357 1167.5 276.117 1168.79 275.637C1170.1 275.158 1171.21 274.521 1172.12 273.727C1173.03 272.933 1174.01 271.651 1175.07 269.882ZM1175.07 262.613C1174.6 260.76 1173.93 259.28 1173.03 258.172C1172.16 257.064 1170.99 256.171 1169.54 255.493C1168.08 254.815 1166.55 254.475 1164.95 254.475C1162.3 254.475 1160.03 255.327 1158.12 257.031C1156.73 258.271 1155.68 260.132 1154.97 262.613H1175.07Z" fill="white"></path>
<path d="M1221.68 272.04L1224.78 270.179C1226.97 274.198 1229.49 276.208 1232.35 276.208C1233.57 276.208 1234.72 275.927 1235.8 275.364C1236.87 274.786 1237.69 274.016 1238.26 273.057C1238.82 272.098 1239.1 271.081 1239.1 270.006C1239.1 268.782 1238.69 267.583 1237.86 266.408C1236.72 264.788 1234.63 262.836 1231.61 260.554C1228.56 258.255 1226.67 256.592 1225.93 255.567C1224.64 253.847 1223.99 251.986 1223.99 249.985C1223.99 248.397 1224.37 246.95 1225.13 245.644C1225.89 244.337 1226.96 243.312 1228.33 242.567C1229.72 241.806 1231.23 241.426 1232.85 241.426C1234.57 241.426 1236.17 241.856 1237.66 242.716C1239.17 243.56 1240.75 245.123 1242.42 247.405L1239.45 249.663C1238.07 247.843 1236.9 246.644 1235.92 246.065C1234.96 245.486 1233.91 245.197 1232.77 245.197C1231.3 245.197 1230.09 245.644 1229.15 246.537C1228.22 247.43 1227.76 248.53 1227.76 249.836C1227.76 250.63 1227.93 251.399 1228.26 252.143C1228.59 252.888 1229.19 253.698 1230.07 254.575C1230.55 255.038 1232.12 256.253 1234.78 258.222C1237.94 260.554 1240.11 262.629 1241.28 264.449C1242.46 266.268 1243.04 268.095 1243.04 269.931C1243.04 272.578 1242.03 274.876 1240.02 276.828C1238.02 278.78 1235.58 279.756 1232.7 279.756C1230.48 279.756 1228.47 279.168 1226.67 277.994C1224.87 276.803 1223.2 274.819 1221.68 272.04Z" fill="white"></path>
<path d="M1259.99 251.846H1263.66L1272.94 272.635L1281.94 251.846H1285.64L1269.54 288.711H1265.87L1271.08 276.803L1259.99 251.846Z" fill="white"></path>
<path d="M1316.4 254.798L1314.17 257.105C1312.32 255.302 1310.51 254.401 1308.74 254.401C1307.61 254.401 1306.64 254.773 1305.83 255.517C1305.04 256.262 1304.64 257.13 1304.64 258.122C1304.64 258.999 1304.97 259.834 1305.64 260.628C1306.3 261.438 1307.69 262.389 1309.8 263.481C1312.38 264.821 1314.14 266.111 1315.06 267.351C1315.97 268.608 1316.43 270.022 1316.43 271.593C1316.43 273.81 1315.65 275.687 1314.1 277.225C1312.54 278.763 1310.6 279.532 1308.27 279.532C1306.71 279.532 1305.22 279.193 1303.8 278.515C1302.39 277.837 1301.23 276.903 1300.3 275.712L1302.49 273.231C1304.25 275.232 1306.13 276.233 1308.12 276.233C1309.51 276.233 1310.69 275.786 1311.66 274.893C1312.64 274 1313.13 272.95 1313.13 271.742C1313.13 270.75 1312.81 269.865 1312.16 269.088C1311.52 268.327 1310.06 267.368 1307.79 266.21C1305.36 264.953 1303.71 263.713 1302.83 262.489C1301.96 261.265 1301.52 259.867 1301.52 258.296C1301.52 256.245 1302.21 254.542 1303.6 253.185C1305.01 251.829 1306.78 251.151 1308.91 251.151C1311.39 251.151 1313.89 252.367 1316.4 254.798Z" fill="white"></path>
<path d="M1338.31 241.823H1341.81V251.846H1347.31V254.823H1341.81V278.838H1338.31V254.823H1333.57V251.846H1338.31V241.823Z" fill="white"></path>
<path d="M1387.93 269.882L1390.85 271.42C1389.89 273.305 1388.79 274.827 1387.53 275.985C1386.27 277.142 1384.86 278.027 1383.29 278.639C1381.72 279.235 1379.94 279.532 1377.95 279.532C1373.55 279.532 1370.11 278.093 1367.63 275.216C1365.15 272.321 1363.91 269.055 1363.91 265.416C1363.91 261.993 1364.96 258.941 1367.06 256.262C1369.72 252.855 1373.29 251.151 1377.75 251.151C1382.35 251.151 1386.02 252.896 1388.77 256.386C1390.72 258.85 1391.71 261.926 1391.75 265.615H1367.48C1367.55 268.757 1368.55 271.337 1370.49 273.355C1372.42 275.356 1374.81 276.357 1377.66 276.357C1379.03 276.357 1380.36 276.117 1381.65 275.637C1382.96 275.158 1384.06 274.521 1384.97 273.727C1385.88 272.933 1386.87 271.651 1387.93 269.882ZM1387.93 262.613C1387.46 260.76 1386.79 259.28 1385.89 258.172C1385.02 257.064 1383.85 256.171 1382.39 255.493C1380.94 254.815 1379.41 254.475 1377.8 254.475C1375.16 254.475 1372.88 255.327 1370.98 257.031C1369.59 258.271 1368.54 260.132 1367.83 262.613H1387.93Z" fill="white"></path>
<path d="M1410.92 251.846H1414.37V256.51C1415.58 254.79 1416.82 253.533 1418.09 252.739C1419.85 251.68 1421.69 251.151 1423.63 251.151C1424.93 251.151 1426.17 251.407 1427.35 251.92C1428.52 252.433 1429.48 253.119 1430.23 253.979C1430.97 254.823 1431.61 256.038 1432.16 257.626C1433.32 255.509 1434.77 253.905 1436.5 252.813C1438.24 251.705 1440.11 251.151 1442.11 251.151C1443.98 251.151 1445.62 251.622 1447.05 252.565C1448.48 253.508 1449.55 254.823 1450.25 256.51C1450.94 258.197 1451.29 260.727 1451.29 264.101V278.838H1447.74V264.101C1447.74 261.207 1447.53 259.222 1447.12 258.147C1446.71 257.056 1446 256.179 1444.99 255.517C1443.99 254.856 1442.8 254.525 1441.41 254.525C1439.73 254.525 1438.18 255.021 1436.77 256.014C1435.39 257.006 1434.37 258.329 1433.72 259.983C1433.08 261.637 1432.76 264.399 1432.76 268.269V278.838H1429.31V265.019C1429.31 261.761 1429.1 259.553 1428.69 258.395C1428.29 257.221 1427.59 256.287 1426.58 255.592C1425.57 254.881 1424.37 254.525 1422.98 254.525C1421.38 254.525 1419.87 255.013 1418.47 255.989C1417.08 256.948 1416.04 258.246 1415.36 259.884C1414.7 261.521 1414.37 264.027 1414.37 267.401V278.838H1410.92V251.846Z" fill="white"></path>
<defs>
<clipPath id="clip0_12026_8389">
<path d="M0 137.2C0 89.1755 0 65.1632 9.34619 46.8203C17.5673 30.6854 30.6854 17.5673 46.8203 9.34619C65.1632 0 89.1755 0 137.2 0H205.8C253.825 0 277.837 0 296.18 9.34619C312.315 17.5673 325.433 30.6854 333.654 46.8203C343 65.1632 343 89.1755 343 137.2V205.8C343 253.825 343 277.837 333.654 296.18C325.433 312.315 312.315 325.433 296.18 333.654C277.837 343 253.825 343 205.8 343H137.2C89.1755 343 65.1632 343 46.8203 333.654C30.6854 325.433 17.5673 312.315 9.34619 296.18C0 277.837 0 253.825 0 205.8V137.2Z" fill="white"></path>
</clipPath>
</defs>
</svg>